<?xml version="1.0" encoding="UTF-8"?>
<svg version="1.1" xmlns="http://www.w3.org/2000/svg" width="512" height="512">
<path d="M0 0 C1.04140137 0.18925049 2.08280273 0.37850098 3.15576172 0.57348633 C13.17036499 2.5416123 21.66387223 5.74930957 28.5625 13.5 C35.03498056 23.75189328 38.28345234 35.83472238 42.0625 47.25 C43.3396459 51.07950556 44.62181359 54.90730908 45.90625 58.734375 C46.21393311 59.65327515 46.52161621 60.57217529 46.83862305 61.5189209 C49.55590513 69.58668658 52.49775539 77.55848767 55.5625 85.5 C56.36530396 84.86227661 56.36530396 84.86227661 57.18432617 84.21166992 C66.20747592 78.14922733 75.32285181 78.61667167 85.86157227 78.77270508 C88.88634739 78.81264985 91.90678521 78.79328511 94.93164062 78.76757812 C96.8672044 78.77513193 98.80275856 78.78608003 100.73828125 78.80078125 C101.63525223 78.79379715 102.53222321 78.78681305 103.45637512 78.77961731 C107.69025929 78.87476446 110.65927012 79.12039793 114.05151367 81.79370117 C119.7796729 87.96741483 118.89634236 93.74782889 118.875 101.875 C118.89111328 103.09445312 118.90722656 104.31390625 118.92382812 105.5703125 C118.92447266 106.75109375 118.92511719 107.931875 118.92578125 109.1484375 C118.93025269 110.75984619 118.93025269 110.75984619 118.93481445 112.40380859 C118.3551898 117.2240052 116.66411348 120.31876215 113.37036133 123.85058594 C109.75486139 125.97442887 106.70619246 126.0076533 102.63671875 125.890625 C101.88912796 125.88496521 101.14153717 125.87930542 100.37129211 125.87347412 C97.99686089 125.85118468 95.62397062 125.80100656 93.25 125.75 C91.63478751 125.72992519 90.01955123 125.71167613 88.40429688 125.6953125 C84.45644267 125.65134486 80.50973208 125.58237261 76.5625 125.5 C77.05278687 126.47102661 77.05278687 126.47102661 77.55297852 127.46166992 C83.15112409 138.62547667 88.67462621 149.75596818 92.625 161.625 C92.88676025 162.40254639 93.14852051 163.18009277 93.41821289 163.98120117 C97.63869006 177.28702275 99.00166412 189.86399818 98.85546875 203.71484375 C98.84985481 205.30765884 98.84559325 206.90047921 98.84260559 208.49330139 C98.83129801 212.63116442 98.8019573 216.7686979 98.76849365 220.90643311 C98.73748392 225.15046738 98.7240351 229.39455631 98.70898438 233.63867188 C98.67706985 241.92593039 98.62605053 250.21292389 98.5625 258.5 C99.80386719 258.43039062 101.04523438 258.36078125 102.32421875 258.2890625 C103.96609158 258.23276972 105.60802311 258.17817119 107.25 258.125 C108.06662109 258.07472656 108.88324219 258.02445312 109.72460938 257.97265625 C114.30568657 257.86137502 115.94782833 257.93812126 119.45336914 261.14257812 C121.40468999 264.24879 123.10124641 267.25730961 124.62109375 270.59375 C125.43755371 272.36613037 125.43755371 272.36613037 126.27050781 274.17431641 C126.84709966 275.44950157 127.42359474 276.72473049 128 278 C128.60547379 279.32124642 129.21193626 280.64204018 129.81933594 281.96240234 C131.08830036 284.72287578 132.35293565 287.48527308 133.61474609 290.24902344 C136.502467 296.56394758 139.44543569 302.85310581 142.38650513 309.14331055 C143.29872915 311.09552948 144.20909633 313.04860357 145.11889648 315.00195312 C145.67262939 316.18982422 146.2263623 317.37769531 146.796875 318.6015625 C147.28381836 319.64650879 147.77076172 320.69145508 148.27246094 321.76806641 C149.05945024 323.43468455 149.86759348 325.09178676 150.7121582 326.72998047 C151.75372409 328.89804038 151.93018725 330.60172664 152 333 C152.03996094 333.7528125 152.07992188 334.505625 152.12109375 335.28125 C151.25630113 338.71623048 149.51883177 339.62896936 146.5625 341.5 C143.63104211 341.88464422 141.07988014 342.03817061 138.15254211 342.00336456 C137.30408403 342.00917833 136.45562595 342.01499209 135.58145702 342.02098203 C132.72499856 342.03563456 129.86939232 342.0216723 127.01293945 342.00793457 C124.94978297 342.0125414 122.88662977 342.01889285 120.82348347 342.02684355 C115.14355753 342.04358983 109.46389935 342.03526638 103.78397226 342.02289867 C97.66255252 342.01387218 91.54117978 342.02780597 85.41976929 342.03881836 C74.11756525 342.05560349 62.81547074 342.0541117 51.51326939 342.04317249 C41.0727714 342.03311672 30.63230482 342.03048044 20.19180298 342.03526306 C19.49969891 342.0355686 18.80759484 342.03587414 18.09451792 342.03618894 C15.28515703 342.03743426 12.47579615 342.03870786 9.66643529 342.040028 C-16.69630806 342.05226849 -43.05899683 342.04116304 -69.42173176 342.01964041 C-92.85182176 342.00065748 -116.28182482 342.00235597 -139.71191406 342.02148438 C-166.02593349 342.04289534 -192.33990469 342.05140046 -218.65393162 342.03903532 C-221.45822206 342.03775242 -224.26251252 342.03650106 -227.06680298 342.03526306 C-227.7573086 342.03494675 -228.44781423 342.03463044 -229.15924426 342.03430455 C-239.59408092 342.02975153 -250.02888276 342.03508158 -260.4637146 342.04518127 C-272.32666354 342.05660586 -284.18950976 342.05339969 -296.05245471 342.0320583 C-302.10871509 342.02152332 -308.16479869 342.01746776 -314.22105789 342.03065491 C-319.76017676 342.04253388 -325.29895421 342.03609056 -330.8380419 342.0147447 C-332.84671299 342.01025953 -334.85541266 342.0125875 -336.86406553 342.02224785 C-339.58563977 342.03433748 -342.30603061 342.02201277 -345.02754211 342.00336456 C-345.81515053 342.01272923 -346.60275894 342.02209389 -347.41423428 342.03174233 C-351.06776958 341.98139338 -353.2719684 341.5991582 -356.4316473 339.70641947 C-358.4375 337.5 -358.4375 337.5 -358.94110107 333.69392395 C-358.66264781 329.5277408 -357.28290707 326.07559756 -355.37988281 322.3972168 C-355.05468658 321.73762466 -354.72949036 321.07803253 -354.3944397 320.39845276 C-353.32537222 318.24055111 -352.23378982 316.09500005 -351.140625 313.94921875 C-350.38680879 312.44381821 -349.63412035 310.93785246 -348.88250732 309.43135071 C-347.3086018 306.28527794 -345.7239392 303.14495038 -344.13085938 300.00854492 C-342.09098085 295.9912789 -340.0743933 291.96286547 -338.0651741 287.9301939 C-336.51496347 284.82335932 -334.95472796 281.72164949 -333.3911972 278.62150002 C-332.64384508 277.13766048 -331.89911594 275.6524968 -331.1570816 274.16599083 C-330.11876548 272.09078735 -329.06765031 270.02259425 -328.01269531 267.95581055 C-327.41757141 266.77858932 -326.82244751 265.6013681 -326.20928955 264.38847351 C-323.50788037 259.98448047 -323.50788037 259.98448047 -320.4375 258.5 C-317.60349714 258.28659617 -315.00733831 258.21535009 -312.1875 258.3125 C-311.44242187 258.32603516 -310.69734375 258.33957031 -309.9296875 258.35351562 C-308.09864584 258.38872796 -306.26797831 258.44253149 -304.4375 258.5 C-304.44638245 257.59814468 -304.45526489 256.69628937 -304.4644165 255.7671051 C-304.54516463 247.1929415 -304.60576661 238.61890887 -304.64474869 230.04444981 C-304.66546472 225.63810836 -304.69348276 221.23208576 -304.73925781 216.82592773 C-304.78329534 212.55944201 -304.80675661 208.29325942 -304.81700897 204.02656364 C-304.8242981 202.41336239 -304.83852538 200.80017431 -304.86042023 199.18710518 C-305.05129366 184.51721639 -302.58477945 171.00087264 -297.3125 157.25 C-297.02753662 156.48840576 -296.74257324 155.72681152 -296.44897461 154.94213867 C-292.70036781 145.20285057 -288.07253657 135.84159715 -283.4375 126.5 C-284.43604004 126.49589111 -285.43458008 126.49178223 -286.46337891 126.48754883 C-290.18752836 126.46568677 -293.91063182 126.41132599 -297.63427734 126.34741211 C-299.24224786 126.32429329 -300.85036848 126.30985076 -302.45849609 126.30444336 C-304.77796299 126.29510804 -307.09508914 126.25402541 -309.4140625 126.20703125 C-310.12680328 126.2109639 -310.83954407 126.21489655 -311.57388306 126.21894836 C-317.28276648 126.05409756 -319.64024705 124.50679799 -323.4375 120.5 C-326.58671946 114.85741188 -325.80585484 108.34549759 -325.8125 102.0625 C-325.83699219 100.84755859 -325.86148438 99.63261719 -325.88671875 98.38085938 C-325.913045 90.37329102 -325.40588013 86.66815407 -319.90014648 80.88525391 C-316.02859541 78.70748244 -312.18019077 79.01217945 -307.80859375 78.99609375 C-306.86371597 78.98610855 -305.9188382 78.97612335 -304.94532776 78.96583557 C-302.94398367 78.95065365 -300.94256373 78.9436098 -298.94116211 78.9440918 C-295.9093315 78.93757381 -292.88085423 78.88321608 -289.84960938 78.82617188 C-279.35098472 78.73734111 -270.97935911 78.6729594 -262.4375 85.5 C-257.25383007 73.95177814 -253.51429621 61.93574214 -249.59692383 49.91674805 C-237.57850434 13.11788044 -237.57850434 13.11788044 -227.375 6.75 C-217.17130742 1.66262546 -205.03047625 0.65013808 -193.875 -1 C-193.16029541 -1.10672028 -192.44559082 -1.21344055 -191.70922852 -1.32339478 C-128.03900408 -10.79100433 -63.44868955 -11.76613506 0 0 Z M-164.5 35.375 C-165.51873199 35.48757141 -165.51873199 35.48757141 -166.55804443 35.60241699 C-179.59774928 37.06473214 -192.50999791 39.27139813 -205.4375 41.5 C-207.9166259 48.52280904 -210.39408019 55.54620535 -212.86937714 62.57036495 C-214.0186976 65.83162683 -215.16860205 69.09268037 -216.31982422 72.35327148 C-217.64202019 76.09818979 -218.96170665 79.84398991 -220.28125 83.58984375 C-220.69685181 84.76586655 -221.11245361 85.94188934 -221.54064941 87.15354919 C-221.9210437 88.23459427 -222.30143799 89.31563934 -222.69335938 90.42944336 C-223.03089233 91.38652695 -223.36842529 92.34361053 -223.71618652 93.32969666 C-224.4900655 95.2769884 -224.4900655 95.2769884 -224.4375 96.5 C-216.40373808 96.03613827 -208.37941207 95.52676015 -200.36328125 94.81640625 C-134.54189824 89.00781067 -68.82549612 89.03771891 -3.03100586 95.17871094 C-2.09650604 95.26569244 -1.16200623 95.35267395 -0.19918823 95.44229126 C1.54017426 95.60557497 3.2792745 95.77168871 5.01803589 95.94125366 C9.21897918 96.33961944 13.33610702 96.58735196 17.5625 96.5 C14.61403623 86.43916801 11.26941094 76.53156222 7.82983398 66.62939453 C7.10609272 64.53196845 6.39165874 62.43130908 5.6862793 60.32763672 C4.6607871 57.27274695 3.60535569 54.2297247 2.54296875 51.1875 C2.23336716 50.24487305 1.92376556 49.30224609 1.6047821 48.33105469 C-0.12116376 43.18836443 -0.12116376 43.18836443 -4.24462891 39.97070312 C-5.8251001 39.73770508 -5.8251001 39.73770508 -7.4375 39.5 C-9.10921265 39.17612305 -9.10921265 39.17612305 -10.81469727 38.84570312 C-12.03213623 38.65943359 -13.2495752 38.47316406 -14.50390625 38.28125 C-15.17110184 38.17838684 -15.83829742 38.07552368 -16.52571106 37.96954346 C-18.68286603 37.63973354 -20.84121921 37.3189834 -23 37 C-23.73881409 36.88950317 -24.47762817 36.77900635 -25.23883057 36.66516113 C-37.27642251 34.87029609 -49.29377611 33.367038 -61.4375 32.5 C-62.51789551 32.41540527 -62.51789551 32.41540527 -63.62011719 32.32910156 C-97.19158496 29.75605029 -131.09759792 31.62833041 -164.5 35.375 Z M67.9140625 167.06640625 C67.00229248 167.21883789 66.09052246 167.37126953 65.15112305 167.52832031 C64.17312744 167.70459961 63.19513184 167.88087891 62.1875 168.0625 C61.16889893 168.24522461 60.15029785 168.42794922 59.10083008 168.61621094 C37.67080054 172.61379604 17.7149246 178.76832628 -0.640625 190.73828125 C-6.23973763 194.26509661 -10.47252707 195.94507806 -17.11505127 195.88768005 C-17.86857935 195.89306559 -18.62210742 195.89845113 -19.39846969 195.90399987 C-21.91327548 195.91826117 -24.42755354 195.91118032 -26.94238281 195.90405273 C-28.74968386 195.90975741 -30.5569813 195.91672204 -32.36427307 195.92485046 C-37.26737738 195.94278998 -42.17030279 195.94161153 -47.07343006 195.93590808 C-51.1711079 195.93281621 -55.26875138 195.93890894 -59.36642432 195.94494683 C-69.03809453 195.95899416 -78.70967642 195.95743009 -88.38134766 195.94604492 C-98.34588466 195.93457388 -108.31015219 195.94862188 -118.27465367 195.9754414 C-126.83963514 195.99762766 -135.40453221 196.00422887 -143.96954036 195.99836498 C-149.08054094 195.99499996 -154.19136896 195.99737984 -159.30234528 196.01461601 C-164.11233996 196.03012881 -168.92193719 196.02608158 -173.73191643 196.00731087 C-175.49185805 196.00363642 -177.25182939 196.0066999 -179.01174355 196.01719666 C-188.17370792 196.06764574 -196.15306704 195.91947542 -204.4375 191.5 C-205.75667623 190.8866552 -207.07794565 190.27776751 -208.40234375 189.67578125 C-209.04244385 189.37397949 -209.68254395 189.07217773 -210.34204102 188.76123047 C-232.642772 178.35404413 -257.88136183 170.06339283 -282.4375 167.5 C-283.4275 170.8 -284.4175 174.1 -285.4375 177.5 C-279.17915019 179.66909387 -272.94288441 181.4485591 -266.50390625 182.98828125 C-264.618948 183.45169116 -262.7341882 183.91590884 -260.84960938 184.38085938 C-257.92456664 185.09931243 -254.99869561 185.81281151 -252.0690918 186.51245117 C-225.28886389 192.92918 -225.28886389 192.92918 -216.4375 205.5 C-212.73998248 211.70010559 -211.28645784 216.81383792 -211.1875 224.0625 C-211.16171875 225.19816406 -211.1359375 226.33382812 -211.109375 227.50390625 C-211.4375 230.5 -211.4375 230.5 -212.765625 232.33984375 C-216.40201116 234.86322386 -219.92112286 234.65149975 -224.20385742 234.70532227 C-224.88704544 234.71522186 -225.57023346 234.72512146 -226.27412415 234.73532104 C-228.53037053 234.76688679 -230.78663797 234.7916739 -233.04296875 234.81640625 C-234.60810389 234.83698004 -236.17323352 234.85797662 -237.73835754 234.87937927 C-241.85647116 234.93455609 -245.97463456 234.98398471 -250.09283447 235.03222656 C-254.29565864 235.08247365 -258.49841058 235.13814297 -262.70117188 235.19335938 C-270.9465535 235.30088726 -279.19199558 235.40234413 -287.4375 235.5 C-287.55336755 239.93728151 -287.62464058 244.37417591 -287.6875 248.8125 C-287.72101563 250.07513672 -287.75453125 251.33777344 -287.7890625 252.63867188 C-287.80195313 253.84716797 -287.81484375 255.05566406 -287.828125 256.30078125 C-287.84907227 257.41622314 -287.87001953 258.53166504 -287.89160156 259.6809082 C-287.67423677 262.5270109 -287.67423677 262.5270109 -285.91766357 264.36616516 C-282.42058376 265.96489477 -279.13331075 265.89394462 -275.36425781 265.84057617 C-274.14906212 265.84123329 -274.14906212 265.84123329 -272.90931702 265.84190369 C-270.23617305 265.83981654 -267.56365917 265.81648924 -264.890625 265.79296875 C-263.03546491 265.78737253 -261.18030039 265.78310255 -259.32513428 265.78010559 C-254.4456963 265.76865889 -249.56652682 265.73919317 -244.68719482 265.70599365 C-239.70686475 265.67528903 -234.72649123 265.66159941 -229.74609375 265.64648438 C-219.97644463 265.61432335 -210.20699465 265.56312905 -200.4375 265.5 C-199.1616419 262.95592106 -197.88661759 260.41142989 -196.61206055 257.86669922 C-196.25390007 257.15273483 -195.89573959 256.43877045 -195.52672577 255.70317078 C-193.52229109 251.69946361 -191.554245 247.68288395 -189.64453125 243.6328125 C-189.24169922 242.79105469 -188.83886719 241.94929688 -188.42382812 241.08203125 C-187.61780735 239.39488627 -186.82416669 237.70178789 -186.04101562 236.00390625 C-185.64205078 235.18019531 -185.24308594 234.35648437 -184.83203125 233.5078125 C-184.49018799 232.78223145 -184.14834473 232.05665039 -183.79614258 231.30908203 C-181.9520668 228.85362803 -180.3513255 228.43733928 -177.4375 227.5 C-174.49362183 227.24831772 -174.49362183 227.24831772 -171.17529297 227.24603271 C-169.91352234 227.24039307 -168.65175171 227.23475342 -167.35174561 227.22894287 C-165.96105899 227.23283113 -164.57037295 227.23692745 -163.1796875 227.24121094 C-161.7092471 227.23849969 -160.23880806 227.234938 -158.76837158 227.23059082 C-154.78082188 227.22148047 -150.79337577 227.22500548 -146.80582428 227.23134899 C-142.63080061 227.23641598 -138.45578574 227.23171559 -134.28076172 227.22857666 C-127.26984059 227.22493906 -120.25896161 227.22973071 -113.24804688 227.23925781 C-105.14495656 227.25014197 -97.04196689 227.24661625 -88.93887901 227.235605 C-81.97908861 227.22652626 -75.01932849 227.22524972 -68.05953407 227.23048234 C-63.90391007 227.23359881 -59.74833336 227.23402024 -55.5927124 227.22740936 C-51.68568973 227.22162801 -47.77879671 227.22564724 -43.87178802 227.23719788 C-42.43871018 227.23984023 -41.0056214 227.2390866 -39.57254791 227.23467255 C-37.61493827 227.22919921 -35.65730477 227.23728298 -33.69970703 227.24603271 C-32.05713425 227.24716379 -32.05713425 227.24716379 -30.38137817 227.24831772 C-26.48530583 227.58140636 -23.53024447 228.33598601 -20.81665039 231.2265625 C-19.11612546 234.02976452 -17.73706727 236.89360876 -16.37109375 239.875 C-16.09153336 240.48134277 -15.81197296 241.08768555 -15.52394104 241.71240234 C-14.63648119 243.63958026 -13.75556037 245.56966126 -12.875 247.5 C-11.989448 249.42965998 -11.10257213 251.35870633 -10.21534729 253.28759766 C-9.41148819 255.03708702 -8.61081077 256.78803727 -7.81030273 258.5390625 C-6.72374665 260.88260726 -5.59925824 263.19358617 -4.4375 265.5 C6.18484717 265.56948443 16.80714035 265.62280338 27.42966843 265.65543652 C32.36204806 265.67109812 37.2942723 265.69234548 42.2265625 265.72631836 C46.98574605 265.75889408 51.74478004 265.77684929 56.50406647 265.78463173 C58.32057296 265.79017845 60.1370712 265.80100975 61.9535141 265.81719017 C64.49620812 265.8389408 67.03828273 265.84196794 69.58105469 265.84057617 C70.70962387 265.85675491 70.70962387 265.85675491 71.86099243 265.8732605 C74.90059656 265.855236 77.25817142 265.63944984 80.03692627 264.36616516 C82.24301023 261.6675627 82.01794294 259.75233658 81.953125 256.30078125 C81.94023437 255.09228516 81.92734375 253.88378906 81.9140625 252.63867188 C81.88054687 251.37603516 81.84703125 250.11339844 81.8125 248.8125 C81.79445313 247.53826172 81.77640625 246.26402344 81.7578125 244.95117188 C81.71060441 241.80003159 81.64476384 238.6503886 81.5625 235.5 C80.69663773 235.49191315 79.83077545 235.48382629 78.93867493 235.47549438 C70.77264515 235.39750431 62.60677925 235.31020021 54.44096088 235.21247292 C50.24298205 235.16255963 46.04502778 235.11622922 41.84692383 235.078125 C37.79436274 235.04120934 33.7420096 234.99483246 29.68962669 234.94193649 C28.14474325 234.92342588 26.59981529 234.90830563 25.05486488 234.89665604 C22.88833009 234.87973624 20.72226807 234.85068829 18.5559082 234.81884766 C17.32346878 234.80552399 16.09102936 234.79220032 14.82124329 234.7784729 C11.62969509 234.50574209 9.40767458 233.93992295 6.5625 232.5 C4.49496151 229.84173622 4.13510109 227.08534337 4.25 223.74609375 C5.59741847 214.0615235 9.05484876 204.29768057 16.5625 197.7578125 C27.74377373 189.73125528 42.53154958 187.07546636 55.5625 183.3125 C58.38247881 182.49451843 61.2021578 181.67551195 64.02172852 180.85612488 C65.76540107 180.34979273 67.50936764 179.84447174 69.25366211 179.34028625 C70.03878174 179.11302353 70.82390137 178.8857608 71.6328125 178.65161133 C72.32133301 178.45271805 73.00985352 178.25382477 73.71923828 178.04890442 C75.34370932 177.56515362 76.95451091 177.03599636 78.5625 176.5 C77.9025 173.53 77.2425 170.56 76.5625 167.5 C72.88504659 166.58063665 71.46858209 166.47018037 67.9140625 167.06640625 Z M-265.4375 282.5 C-265.4375 286.79 -265.4375 291.08 -265.4375 295.5 C-262.17126225 298.76623775 -261.26595767 298.86128358 -256.86390686 298.94248962 C-256.12635666 298.93955399 -255.38880646 298.93661835 -254.62890625 298.93359375 C-253.86577621 298.9388356 -253.10264618 298.94407745 -252.31639099 298.94947815 C-250.70337134 298.95589754 -249.09030486 298.95456236 -247.47729492 298.94604492 C-245.0120074 298.93754142 -242.54904251 298.96628257 -240.08398438 298.99804688 C-238.51562569 298.99965921 -236.94726292 298.99908074 -235.37890625 298.99609375 C-234.27561729 299.01294472 -234.27561729 299.01294472 -233.15003967 299.03013611 C-227.89922417 298.95882482 -227.4560458 298.5185458 -223.4375 294.5 C-223.4375 290.54 -223.4375 286.58 -223.4375 282.5 C-237.2975 282.5 -251.1575 282.5 -265.4375 282.5 Z M17.5625 282.5 C17.5625 286.79 17.5625 291.08 17.5625 295.5 C21.90662667 298.758095 24.13063337 298.94219215 29.25 298.8984375 C29.98951904 298.90130768 30.72903809 298.90417786 31.4909668 298.90713501 C33.05095182 298.90917203 34.6109626 298.90366745 36.17089844 298.89111328 C38.55461908 298.8750531 40.9366444 298.89097279 43.3203125 298.91015625 C44.8385454 298.90817375 46.35677724 298.90432994 47.875 298.8984375 C48.58551514 298.90451019 49.29603027 298.91058289 50.02807617 298.9168396 C54.62903294 298.85165706 55.66206806 298.42532395 59.5625 295.5 C59.5625 291.21 59.5625 286.92 59.5625 282.5 C45.7025 282.5 31.8425 282.5 17.5625 282.5 Z " fill="#66CCFE" transform="translate(359.4375,164.5)"/>
<path d="M0 0 C3.88004235 0.01071566 7.75961997 0.0000293 11.63964844 -0.01269531 C35.47022894 -0.02917156 58.99492338 1.21344691 82.50415039 5.23754883 C85.26892667 5.70964482 88.03677673 6.15915053 90.80566406 6.60644531 C92.60861019 6.90530082 94.41135373 7.2053818 96.21386719 7.50683594 C97.0201506 7.63819443 97.82643402 7.76955292 98.65715027 7.90489197 C114.37036777 10.62902337 114.37036777 10.62902337 119.51464844 17.26074219 C120.95947266 20.18334961 120.95947266 20.18334961 122.19433594 23.67871094 C122.43538055 24.3517778 122.67642517 25.02484467 122.92477417 25.7183075 C125.25190488 32.30151511 127.42269406 38.9405432 129.62818146 45.56521988 C130.27872756 47.51783268 130.93082375 49.46992102 131.58343506 51.42184448 C131.80311825 52.07911467 132.02280144 52.73638485 132.24914169 53.41357231 C132.69889871 54.75883225 133.14892592 56.10400188 133.59921646 57.44908333 C134.73413347 60.84355219 135.85973275 64.24062442 136.96679688 67.64428711 C142.09667116 83.38838973 147.63002826 97.56185165 157.17254639 111.25863647 C160.67306274 116.48059689 163.41880525 122.1660732 166.26464844 127.76074219 C166.88381586 128.94986952 167.50360906 130.13867122 168.12402344 131.32714844 C172.51464844 139.86338588 172.51464844 139.86338588 172.51464844 143.26074219 C171.38671875 143.41929687 170.25878906 143.57785156 169.09667969 143.74121094 C144.87439952 147.27449535 111.61647533 152.44942254 92.84358692 169.80570507 C89.60476173 171.82920672 87.1613945 171.65872098 83.35490417 171.688797 C82.63267506 171.69841593 81.91044595 171.70803486 81.16633111 171.71794528 C78.74482852 171.74631198 76.32375186 171.75321077 73.90209961 171.76000977 C72.16544047 171.77553618 70.42879146 171.79223293 68.69215393 171.81001282 C63.96787263 171.85367116 59.24370726 171.87711924 54.51926208 171.89423966 C51.55881249 171.90526898 48.59839514 171.91955676 45.63796425 171.93475914 C36.35119051 171.981196 27.06449417 172.01472878 17.77761763 172.03077489 C7.10561112 172.04942516 -3.56500897 172.11051605 -14.23656827 172.20927697 C-22.51042184 172.28315985 -30.78388726 172.31768714 -39.05806559 172.32363814 C-43.98613641 172.32804842 -48.91283877 172.34818013 -53.84055519 172.40973854 C-92.15181822 172.8622869 -92.15181822 172.8622869 -110.14772606 162.51691628 C-114.23735668 160.319264 -118.57501201 158.74412448 -122.92285156 157.13574219 C-123.89738281 156.77383789 -124.87191406 156.41193359 -125.87597656 156.0390625 C-138.04320143 151.89337499 -150.60050791 149.03569192 -163.10229492 146.09521484 C-166.59385607 145.23397821 -170.0337738 144.26872264 -173.48535156 143.26074219 C-170.85634368 136.34428748 -167.86087947 129.74806178 -164.42285156 123.19824219 C-164.00841797 122.38419922 -163.59398437 121.57015625 -163.16699219 120.73144531 C-161.01755583 116.61716757 -158.83323218 112.66795901 -156.06152344 108.93994141 C-146.30899437 95.5440889 -141.83463891 80.31225804 -136.82312012 64.71966553 C-135.39896633 60.30610586 -133.94195795 55.90330572 -132.48892784 51.49918747 C-131.35854692 48.07148212 -130.23290653 44.64252195 -129.12393188 41.20782471 C-120.57827588 14.89972075 -120.57827588 14.89972075 -113.48535156 11.26074219 C-110.33473549 10.1534525 -107.22588208 9.64652554 -103.92285156 9.19824219 C-102.95323486 9.04887207 -101.98361816 8.89950195 -100.98461914 8.74560547 C-97.48860695 8.22055065 -93.98794978 7.73987119 -90.48535156 7.26074219 C-89.0288581 7.05434584 -87.57248286 6.84711388 -86.11621094 6.63916016 C-81.30410192 5.95391655 -76.48905276 5.29153514 -71.67285156 4.63574219 C-70.91511444 4.53123749 -70.15737732 4.42673279 -69.37667847 4.31906128 C-46.28899211 1.16511145 -23.29685936 -0.07615267 0 0 Z M-61.54785156 27.13574219 C-62.56658356 27.2483136 -62.56658356 27.2483136 -63.605896 27.36315918 C-76.64560084 28.82547433 -89.55784947 31.03214032 -102.48535156 33.26074219 C-104.96447747 40.28355123 -107.44193175 47.30694753 -109.9172287 54.33110714 C-111.06654917 57.59236902 -112.21645361 60.85342256 -113.36767578 64.11401367 C-114.68987175 67.85893198 -116.00955821 71.60473209 -117.32910156 75.35058594 C-117.74470337 76.52660873 -118.16030518 77.70263153 -118.58850098 78.91429138 C-118.96889526 79.99533646 -119.34928955 81.07638153 -119.74121094 82.19018555 C-120.0787439 83.14726913 -120.41627686 84.10435272 -120.76403809 85.09043884 C-121.53791706 87.03773058 -121.53791706 87.03773058 -121.48535156 88.26074219 C-113.45158964 87.79688046 -105.42726364 87.28750234 -97.41113281 86.57714844 C-31.5897498 80.76855286 34.12665232 80.7984611 99.92114258 86.93945312 C100.8556424 87.02643463 101.79014221 87.11341614 102.75296021 87.20303345 C104.4923227 87.36631716 106.23142294 87.5324309 107.97018433 87.70199585 C112.17112762 88.10036163 116.28825545 88.34809414 120.51464844 88.26074219 C117.56618466 78.19991019 114.22155937 68.29230441 110.78198242 58.39013672 C110.05824116 56.29271064 109.34380718 54.19205127 108.63842773 52.08837891 C107.61293554 49.03348914 106.55750413 45.99046689 105.49511719 42.94824219 C105.18551559 42.00561523 104.875914 41.06298828 104.55693054 40.09179688 C102.83098468 34.94910661 102.83098468 34.94910661 98.70751953 31.73144531 C97.12704834 31.49844727 97.12704834 31.49844727 95.51464844 31.26074219 C93.84293579 30.93686523 93.84293579 30.93686523 92.13745117 30.60644531 C90.92001221 30.42017578 89.70257324 30.23390625 88.44824219 30.04199219 C87.7810466 29.93912903 87.11385101 29.83626587 86.42643738 29.73028564 C84.26928241 29.40047573 82.11092922 29.07972559 79.95214844 28.76074219 C79.21333435 28.65024536 78.47452026 28.53974854 77.71331787 28.42590332 C65.67572592 26.63103828 53.65837233 25.12778019 41.51464844 24.26074219 C40.43425293 24.17614746 40.43425293 24.17614746 39.33203125 24.08984375 C5.76056348 21.51679248 -28.14544948 23.3890726 -61.54785156 27.13574219 Z " fill="#CAF2F9" transform="translate(256.4853515625,172.7392578125)"/>
<path d="M0 0 C2.25353349 -0.06425248 4.50759293 -0.11024901 6.76171875 -0.1484375 C8.64443481 -0.18976807 8.64443481 -0.18976807 10.56518555 -0.23193359 C14.69296386 0.04679193 16.36932509 1.06874168 19.3359375 3.75390625 C22.42719065 6.06871788 26.25255285 6.43065996 30 7 C30.02578125 8.134375 30.0515625 9.26875 30.078125 10.4375 C30.22649086 22.98250224 30.22649086 22.98250224 36.45703125 33.5078125 C40.50300697 37.09285427 44.04716834 39.23127951 49.45800781 39.30639648 C50.77022308 39.33037758 50.77022308 39.33037758 52.10894775 39.35484314 C53.04752625 39.36020584 53.98610474 39.36556854 54.953125 39.37109375 C55.92731384 39.38012222 56.90150269 39.3891507 57.9052124 39.39845276 C59.96623668 39.41295177 62.02730695 39.42184113 64.08837891 39.42553711 C67.22508456 39.43740573 70.35980475 39.48657178 73.49609375 39.53710938 C75.50259461 39.5465774 77.5091075 39.55381062 79.515625 39.55859375 C80.44610657 39.57812607 81.37658813 39.59765839 82.33526611 39.61778259 C88.79347125 39.57355182 92.98042384 38.10146638 98 34 C105.69280764 25.90230774 104.30682377 18.78399593 105 7 C173.97 7 242.94 7 314 7 C314.33 12.94 314.66 18.88 315 25 C317.87851087 31.77790811 317.87851087 31.77790811 322.5 35.9375 C323.35078125 36.50791016 323.35078125 36.50791016 324.21875 37.08984375 C327.4647138 38.74841736 330.58736631 39.12670226 334.19848633 39.16113281 C335.42544975 39.17554413 335.42544975 39.17554413 336.67720032 39.19024658 C337.99134163 39.1966214 337.99134163 39.1966214 339.33203125 39.203125 C340.69698982 39.21167511 340.69698982 39.21167511 342.08952332 39.22039795 C344.01352786 39.22983394 345.93754846 39.23637636 347.86157227 39.24023438 C350.79146819 39.2499304 353.7206595 39.28096307 356.65039062 39.3125 C358.52343335 39.31903162 360.39648108 39.32428147 362.26953125 39.328125 C363.13955276 39.3404718 364.00957428 39.3528186 364.90596008 39.36553955 C371.70156653 39.34089187 376.41862837 38.17069887 381.75 33.6875 C386.60288907 27.89099361 387.48364225 22.92893192 387.6875 15.625 C387.72166016 14.79355469 387.75582031 13.96210938 387.79101562 13.10546875 C387.87287146 11.07076649 387.93812701 9.03540792 388 7 C388.6295459 6.88744873 389.2590918 6.77489746 389.90771484 6.65893555 C395.54013471 5.62014417 399.8587765 4.1412235 404 0 C406.69654854 -0.07319621 409.36691458 -0.09242537 412.0625 -0.0625 C412.82111328 -0.05798828 413.57972656 -0.05347656 414.36132812 -0.04882812 C416.24091871 -0.0370068 418.12046899 -0.01907078 420 0 C433.64598008 28.00940215 433.64598008 28.00940215 439.375 40.6875 C439.74939209 41.51088867 440.12378418 42.33427734 440.50952148 43.18261719 C443 48.75006302 443 48.75006302 443 51 C288.56 51 134.12 51 -25 51 C-23.64434077 47.61085193 -22.28764033 44.4528211 -20.66162109 41.2097168 C-20.20129486 40.28913986 -19.74096863 39.36856293 -19.26669312 38.42008972 C-18.77391876 37.4397023 -18.28114441 36.45931488 -17.7734375 35.44921875 C-17.26575836 34.43527542 -16.75807922 33.42133209 -16.23501587 32.37666321 C-14.61688923 29.14599675 -12.99598282 25.91673416 -11.375 22.6875 C-10.27585798 20.49423267 -9.17689752 18.30087434 -8.078125 16.10742188 C-5.38752056 10.73722456 -2.69463394 5.36817645 0 0 Z " fill="#C9F2F9" transform="translate(47,439)"/>
<path d="M0 0 C15.20507791 13.03648483 24.50904726 28.60019445 27.5 48.5 C28.96204148 70.43062215 23.38674433 89.90621998 9.03125 106.75 C-0.80603665 117.53058811 -12.31741823 124.05876506 -26.25 128.25 C-27.06855469 128.4975 -27.88710937 128.745 -28.73046875 129 C-46.92930057 133.51055384 -66.85208088 129.87403249 -82.8125 120.4453125 C-99.22961318 110.202858 -110.93415754 94.90317251 -116.1875 76.25 C-120.48891531 55.63672406 -117.63587903 35.17221699 -106.25 17.25 C-94.48319086 0.41129036 -78.39955483 -10.07174849 -58.390625 -14.36328125 C-37.2435715 -16.96720948 -17.17098083 -13.05208512 0 0 Z M-86.25 20.25 C-86.82621094 20.80300781 -87.40242188 21.35601562 -87.99609375 21.92578125 C-97.29657522 31.66109043 -101.0918012 46.11949948 -101.25 59.25 C-100.45220892 71.51234438 -96.21006309 82.19657553 -89.25 92.25 C-88.92 92.25 -88.59 92.25 -88.25 92.25 C-88.03085938 91.19941406 -87.81171875 90.14882812 -87.5859375 89.06640625 C-85.43134037 79.31554755 -83.11217035 71.40310384 -75.25 64.6875 C-74.59 63.883125 -73.93 63.07875 -73.25 62.25 C-73.82652291 59.0130125 -73.82652291 59.0130125 -74.61328125 56.75 C-76.62101263 48.86688291 -76.20797989 40.34515379 -72.37890625 33.140625 C-72.00636719 32.51671875 -71.63382813 31.8928125 -71.25 31.25 C-70.651875 30.1775 -70.05375 29.105 -69.4375 28 C-64.71409812 22.06200907 -58.67269472 18.73453894 -51.25 17.25 C-40.83087303 16.23451767 -32.27413359 17.90069554 -24.0390625 24.51171875 C-18.74613545 29.65440988 -15.5650109 36.25677365 -14.984375 43.6171875 C-15.03160271 54.21980813 -15.03160271 54.21980813 -16.5625 58.8125 C-16.789375 59.946875 -17.01625 61.08125 -17.25 62.25 C-15.23246784 64.85454619 -15.23246784 64.85454619 -12.25 67.25 C-6.23401316 74.86725696 -3.27001821 82.66182879 -2.25 92.25 C6.41925066 84.25481635 9.53773711 72.65681653 10.75 61.25 C11.29879108 45.08560814 6.11823769 31.47651848 -4.6875 19.5625 C-5.533125 18.799375 -6.37875 18.03625 -7.25 17.25 C-7.78753906 16.70859375 -8.32507813 16.1671875 -8.87890625 15.609375 C-19.49562184 5.41378174 -32.83894989 1.86933894 -47.1640625 1.94921875 C-63.16079566 2.36860876 -75.07889085 9.11829511 -86.25 20.25 Z " fill="#66CCFE" transform="translate(176.25,20.75)"/>
<path d="M0 0 C16.12272028 12.29699004 26.08763703 28.95209384 29.53515625 48.87109375 C31.96929507 68.56153809 27.18726577 86.91181537 16.0859375 103.26953125 C3.66714894 119.1887683 -13.76250076 129.56770514 -33.77734375 132.12109375 C-53.7092611 134.07460479 -72.80058681 129.22282003 -88.65234375 116.74609375 C-105.15999813 102.36534067 -114.29200986 84.31617786 -115.98046875 62.49609375 C-116.38039779 42.2330225 -109.04542854 23.36951414 -95.29614258 8.52709961 C-70.00486297 -17.5148633 -29.54177754 -19.98536568 0 0 Z M-85.16015625 22.8125 C-95.5488972 35.96128599 -99.92726211 49.90375426 -98.30859375 66.60546875 C-96.73814627 76.99813588 -93.17404556 85.74326119 -86.77734375 94.12109375 C-86.44734375 94.12109375 -86.11734375 94.12109375 -85.77734375 94.12109375 C-85.70257813 93.46625 -85.6278125 92.81140625 -85.55078125 92.13671875 C-84.13345179 82.29878486 -80.36083787 73.63402234 -73.77734375 66.12109375 C-72.78734375 65.46109375 -71.79734375 64.80109375 -70.77734375 64.12109375 C-71.10734375 63.08984375 -71.43734375 62.05859375 -71.77734375 60.99609375 C-74.19819853 51.10216551 -73.82125716 41.06783853 -68.77734375 32.12109375 C-64.94066205 25.93598054 -59.1297966 22.47496894 -52.52734375 19.80859375 C-41.35095254 17.7595887 -33.43226927 19.66565165 -23.52734375 24.80859375 C-18.07621328 29.39249892 -14.61966616 35.26356032 -12.77734375 42.12109375 C-12.51171875 45.48828125 -12.51171875 45.48828125 -12.52734375 48.99609375 C-12.5325 50.22457031 -12.53765625 51.45304687 -12.54296875 52.71875 C-12.74830946 55.69961257 -13.19899764 57.69921611 -14.27734375 60.43359375 C-15.18776604 64.04994843 -15.18776604 64.04994843 -13.26953125 66.3203125 C-11.83520386 67.87901883 -10.37162538 69.41121837 -8.8828125 70.91796875 C-2.74480479 77.3406707 -1.48124443 85.6532237 0.22265625 94.12109375 C9.65394871 82.97502085 13.95589967 69.39131672 13.01171875 54.87890625 C10.99322401 38.99754197 3.47973411 25.39155043 -8.77734375 15.12109375 C-32.9730976 -1.5255849 -65.08249003 0.13461143 -85.16015625 22.8125 Z " fill="#66CCFE" transform="translate(423.77734375,18.87890625)"/>
<path d="M0 0 C1.0438706 -0.00194681 1.0438706 -0.00194681 2.1088295 -0.00393295 C25.9211492 -0.03752055 49.41303975 0.82418131 73 4.3125 C73.70298218 4.41622925 74.40596436 4.5199585 75.13024902 4.62683105 C105.89753755 9.22891959 105.89753755 9.22891959 111 15.3125 C112.03497314 17.59545898 112.03497314 17.59545898 112.97363281 20.30859375 C113.33120667 21.32816162 113.68878052 22.34772949 114.05718994 23.39819336 C114.43534851 24.50428955 114.81350708 25.61038574 115.203125 26.75 C115.6040033 27.89927979 116.00488159 29.04855957 116.41790771 30.23266602 C117.70344384 33.92316334 118.97711639 37.61762181 120.25 41.3125 C121.50729601 44.93877583 122.76705944 48.56418299 124.0279541 52.18920898 C124.85032116 54.55516687 125.67056727 56.92186307 126.48864746 59.28930664 C128.32246903 64.58030225 130.18271874 69.85430145 132.16992188 75.08984375 C132.49957947 75.9600415 132.82923706 76.83023926 133.16888428 77.72680664 C133.77258891 79.30633522 134.38471338 80.88268591 135.00738525 82.45483398 C136.57521978 86.54893486 137.49551848 89.92499654 137 94.3125 C135.0625 97.1875 135.0625 97.1875 132 99.3125 C126.16845091 100.0140254 120.06474302 99.13773583 114.25 98.5078125 C113.44261383 98.42436081 112.63522766 98.34090912 111.80337524 98.25492859 C110.08725537 98.0774071 108.37132524 97.89804285 106.65557861 97.71694946 C102.1544247 97.24328808 97.65140591 96.78806637 93.1484375 96.33203125 C92.26255951 96.24211411 91.37668152 96.15219696 90.46395874 96.05955505 C59.24497611 92.90411739 28.12929885 92.10475061 -3.22558594 92.07226562 C-6.80023554 92.06790817 -10.3746401 92.05408656 -13.94921875 92.03125 C-38.99623907 91.87473754 -63.73366085 92.87266529 -88.68188858 95.10586166 C-91.12501892 95.32364429 -93.56852755 95.53668459 -96.01217651 95.74856567 C-113.06301756 97.06857657 -113.06301756 97.06857657 -130 99.3125 C-132.03819342 99.47068041 -134.08128089 99.57534442 -136.125 99.625 C-137.13820313 99.66238281 -138.15140625 99.69976562 -139.1953125 99.73828125 C-142 99.3125 -142 99.3125 -144.3671875 97.79296875 C-146.64949176 94.3258319 -146.47106521 91.3051199 -146 87.3125 C-145.007756 83.39590141 -143.67191734 79.62535275 -142.30859375 75.82421875 C-141.92566666 74.72640579 -141.54273956 73.62859283 -141.14820862 72.49751282 C-139.92287137 68.99415723 -138.68033575 65.4971809 -137.4375 62 C-136.62845375 59.6924439 -135.82050095 57.38450413 -135.01367188 55.07617188 C-133.06385668 49.51056487 -131.08966774 43.95406947 -129.10223389 38.40179443 C-128.05476425 35.46599092 -127.02077608 32.52573957 -125.98876953 29.58447266 C-125.37990642 27.87508507 -124.77041215 26.1659221 -124.16015625 24.45703125 C-123.89617538 23.69541183 -123.63219452 22.93379242 -123.36021423 22.14909363 C-121.8347459 17.92939997 -120.3242407 14.46093069 -117 11.3125 C-114.00927734 10.25805664 -114.00927734 10.25805664 -110.4609375 9.66015625 C-109.48475967 9.4898867 -109.48475967 9.4898867 -108.48886108 9.31617737 C-106.32944564 8.95188078 -104.1672651 8.62660752 -102 8.3125 C-101.24819458 8.20282898 -100.49638916 8.09315796 -99.72180176 7.98016357 C-94.03126482 7.167507 -88.32995407 6.4528725 -82.625 5.75 C-80.95827248 5.54019645 -79.29160548 5.32991145 -77.625 5.11914062 C-73.53404884 4.60356608 -69.44177219 4.0996516 -65.34875488 3.60076904 C-63.08175477 3.32253398 -60.81576031 3.03708763 -58.54980469 2.75048828 C-39.05273572 0.31573964 -19.62961846 0.03011575 0 0 Z M-66.0625 20.1875 C-67.08123199 20.30007141 -67.08123199 20.30007141 -68.12054443 20.41491699 C-81.16024928 21.87723214 -94.07249791 24.08389813 -107 26.3125 C-109.4791259 33.33530904 -111.95658019 40.35870535 -114.43187714 47.38286495 C-115.5811976 50.64412683 -116.73110205 53.90518037 -117.88232422 57.16577148 C-119.20452019 60.91068979 -120.52420665 64.65648991 -121.84375 68.40234375 C-122.25935181 69.57836655 -122.67495361 70.75438934 -123.10314941 71.96604919 C-123.4835437 73.04709427 -123.86393799 74.12813934 -124.25585938 75.24194336 C-124.59339233 76.19902695 -124.93092529 77.15611053 -125.27868652 78.14219666 C-126.0525655 80.0894884 -126.0525655 80.0894884 -126 81.3125 C-117.96623808 80.84863827 -109.94191207 80.33926015 -101.92578125 79.62890625 C-36.10439824 73.82031067 29.61200388 73.85021891 95.40649414 79.99121094 C96.34099396 80.07819244 97.27549377 80.16517395 98.23831177 80.25479126 C99.97767426 80.41807497 101.7167745 80.58418871 103.45553589 80.75375366 C107.65647918 81.15211944 111.77360702 81.39985196 116 81.3125 C113.05153623 71.25166801 109.70691094 61.34406222 106.26733398 51.44189453 C105.54359272 49.34446845 104.82915874 47.24380908 104.1237793 45.14013672 C103.0982871 42.08524695 102.04285569 39.0422247 100.98046875 36 C100.67086716 35.05737305 100.36126556 34.11474609 100.0422821 33.14355469 C98.31633624 28.00086443 98.31633624 28.00086443 94.19287109 24.78320312 C92.6123999 24.55020508 92.6123999 24.55020508 91 24.3125 C89.32828735 23.98862305 89.32828735 23.98862305 87.62280273 23.65820312 C86.40536377 23.47193359 85.1879248 23.28566406 83.93359375 23.09375 C83.26639816 22.99088684 82.59920258 22.88802368 81.91178894 22.78204346 C79.75463397 22.45223354 77.59628079 22.1314834 75.4375 21.8125 C74.69868591 21.70200317 73.95987183 21.59150635 73.19866943 21.47766113 C61.16107749 19.68279609 49.14372389 18.179538 37 17.3125 C35.91960449 17.22790527 35.91960449 17.22790527 34.81738281 17.14160156 C1.24591504 14.56855029 -32.66009792 16.44083041 -66.0625 20.1875 Z " fill="#67CCFE" transform="translate(261,179.6875)"/>
<path d="M0 0 C45.87 0 91.74 0 139 0 C149 21 149 21 149 22 C96.53 22 44.06 22 -10 22 C-7 13 -7 13 0 0 Z " fill="#CAF2F9" transform="translate(188,408)"/>
<path d="M0 0 C3.0625 0.875 3.0625 0.875 5.39453125 1.91015625 C12.64030402 4.53051624 20.16104955 3.13802463 27.1640625 0.49609375 C29.88147112 -0.39293499 31.46318543 -0.31325809 34.0625 0.875 C39.21601172 6.1800856 42.21614394 12.59399988 42.16015625 19.984375 C42.15693359 20.73847656 42.15371094 21.49257812 42.15039062 22.26953125 C42.13782227 23.43548828 42.13782227 23.43548828 42.125 24.625 C42.12048828 25.41777344 42.11597656 26.21054688 42.11132812 27.02734375 C42.09958565 28.97659508 42.08165146 30.92580738 42.0625 32.875 C40.71121743 33.50621136 39.35627953 34.12959835 38 34.75 C37.24589844 35.09804687 36.49179687 35.44609375 35.71484375 35.8046875 C28.64599922 38.65721092 22.3527962 39.26099792 14.8125 39.25 C13.78922607 39.24983887 12.76595215 39.24967773 11.71166992 39.24951172 C4.53046583 39.14062745 -1.5324427 38.32290904 -7.9375 34.875 C-8.68644531 34.50117188 -9.43539063 34.12734375 -10.20703125 33.7421875 C-11.06361328 33.31292969 -11.06361328 33.31292969 -11.9375 32.875 C-12.90546161 11.92400874 -12.90546161 11.92400874 -6.9375 3.875 C-6.298125 2.988125 -5.65875 2.10125 -5 1.1875 C-2.9375 -0.125 -2.9375 -0.125 0 0 Z " fill="#C9F2F9" transform="translate(365.9375,95.125)"/>
<path d="M0 0 C1.01273483 -0.00744736 1.01273483 -0.00744736 2.04592896 -0.01504517 C4.27818829 -0.02964317 6.51037657 -0.03646465 8.74267578 -0.04199219 C10.29582725 -0.04774539 11.84897869 -0.0535031 13.40213013 -0.05926514 C16.65871511 -0.06976826 19.91527546 -0.07561549 23.171875 -0.07910156 C27.34044899 -0.08458626 31.50869634 -0.10861642 35.67716789 -0.13707352 C38.8856806 -0.15571608 42.09411486 -0.16090634 45.30267715 -0.16243744 C46.83924267 -0.16546062 48.37580692 -0.17347792 49.91231918 -0.18662262 C52.06419341 -0.2037183 54.21527252 -0.20179484 56.3671875 -0.1953125 C57.59057831 -0.19895813 58.81396912 -0.20260376 60.07443237 -0.20635986 C63.60935657 0.19476298 65.48959894 1.03505906 68.31298828 3.16113281 C69.87770061 6.29055746 70.01000786 9.77195505 69.31298828 13.16113281 C67.96704102 15.25244141 67.96704102 15.25244141 65.31298828 17.16113281 C61.6920205 17.79467457 58.09125557 17.76612837 54.42236328 17.77050781 C52.83273773 17.79531219 52.83273773 17.79531219 51.21099854 17.82061768 C47.82826997 17.86917836 44.44599123 17.89048718 41.06298828 17.91113281 C38.76869472 17.93928564 36.47442218 17.96921209 34.18017578 18.00097656 C28.55786183 18.07493936 22.93567481 18.12653461 17.31298828 18.16113281 C17.87888672 18.71542969 18.44478516 19.26972656 19.02783203 19.84082031 C19.76130859 20.56527344 20.49478516 21.28972656 21.25048828 22.03613281 C21.98138672 22.75542969 22.71228516 23.47472656 23.46533203 24.21582031 C25.94252246 26.82394047 26.2759781 27.83420956 26.68798828 31.47363281 C26.31298828 35.16113281 26.31298828 35.16113281 24.18798828 38.09863281 C21.31298828 40.16113281 21.31298828 40.16113281 18.50048828 40.91113281 C13.65827955 39.77178958 10.91194653 36.48736841 7.31298828 33.16113281 C6.48049561 32.39526855 5.64800293 31.6294043 4.7902832 30.84033203 C2.10073965 28.33155413 -0.54536333 25.78272969 -3.18701172 23.22363281 C-4.10482422 22.36833984 -5.02263672 21.51304688 -5.96826172 20.63183594 C-13.27362147 13.50584886 -13.27362147 13.50584886 -13.36279297 8.68457031 C-12.69747429 5.21568333 -12.25865838 3.54228713 -9.68701172 1.16113281 C-6.26446782 0.02028485 -3.61019649 0.02017551 0 0 Z " fill="#65CCFF" transform="translate(231.68701171875,84.8388671875)"/>
<path d="M0 0 C4.84220873 1.13934323 7.58854175 4.4237644 11.1875 7.75 C12.01999268 8.51586426 12.85248535 9.28172852 13.71020508 10.07080078 C16.39974863 12.57957869 19.04585161 15.12840312 21.6875 17.6875 C23.06421875 18.97043945 23.06421875 18.97043945 24.46875 20.27929688 C31.77410975 27.40528396 31.77410975 27.40528396 31.86328125 32.2265625 C31.19796257 35.69544948 30.75914667 37.36884568 28.1875 39.75 C24.7649561 40.89084797 22.11068477 40.8909573 18.50048828 40.91113281 C17.48775345 40.91858017 17.48775345 40.91858017 16.45455933 40.92617798 C14.22229999 40.94077598 11.99011171 40.94759746 9.7578125 40.953125 C8.20466103 40.9588782 6.65150959 40.96463591 5.09835815 40.97039795 C1.84177317 40.98090107 -1.41478718 40.98674831 -4.67138672 40.99023438 C-8.8399607 40.99571907 -13.00820805 41.01974923 -17.17667961 41.04820633 C-20.38519232 41.06684889 -23.59362658 41.07203915 -26.80218887 41.07357025 C-28.33875439 41.07659344 -29.87531864 41.08461073 -31.4118309 41.09775543 C-33.56370513 41.11485112 -35.71478423 41.11292766 -37.86669922 41.10644531 C-39.70178543 41.11191376 -39.70178543 41.11191376 -41.57394409 41.11749268 C-45.10886829 40.71636983 -46.98911066 39.87607375 -49.8125 37.75 C-51.37721233 34.62057535 -51.50951958 31.13917777 -50.8125 27.75 C-49.46655273 25.65869141 -49.46655273 25.65869141 -46.8125 23.75 C-43.19153222 23.11645824 -39.59076729 23.14500444 -35.921875 23.140625 C-34.86212463 23.12408875 -33.80237427 23.10755249 -32.71051025 23.09051514 C-29.32778169 23.04195445 -25.94550295 23.02064563 -22.5625 23 C-20.26820644 22.97184717 -17.9739339 22.94192072 -15.6796875 22.91015625 C-10.05737355 22.83619345 -4.43518653 22.78459821 1.1875 22.75 C0.62160156 22.19570313 0.05570312 21.64140625 -0.52734375 21.0703125 C-1.26082031 20.34585938 -1.99429688 19.62140625 -2.75 18.875 C-3.48089844 18.15570313 -4.21179688 17.43640625 -4.96484375 16.6953125 C-7.44203418 14.08719234 -7.77548982 13.07692325 -8.1875 9.4375 C-7.8125 5.75 -7.8125 5.75 -5.6875 2.8125 C-2.8125 0.75 -2.8125 0.75 0 0 Z " fill="#65CCFF" transform="translate(269.8125,36.25)"/>
<path d="M0 0 C1.34375 1.53125 1.34375 1.53125 2.625 3.375 C3.35203125 4.31859375 3.35203125 4.31859375 4.09375 5.28125 C9.29554357 13.4885243 8.0555357 23.05629391 7.625 32.375 C6.27371743 33.00621136 4.91877953 33.62959835 3.5625 34.25 C2.80839844 34.59804687 2.05429688 34.94609375 1.27734375 35.3046875 C-5.79150078 38.15721092 -12.0847038 38.76099792 -19.625 38.75 C-20.64827393 38.74983887 -21.67154785 38.74967773 -22.72583008 38.74951172 C-29.90703417 38.64062745 -35.9699427 37.82290904 -42.375 34.375 C-43.12394531 34.00117188 -43.87289062 33.62734375 -44.64453125 33.2421875 C-45.50111328 32.81292969 -45.50111328 32.81292969 -46.375 32.375 C-46.74791276 20.22080635 -46.92661325 11.60621795 -39.375 1.375 C-38.715 0.715 -38.055 0.055 -37.375 -0.625 C-34.33543304 -0.35481627 -31.82774289 0.17763122 -29.02734375 1.3984375 C-22.13171075 3.93733036 -15.09818626 2.91991126 -8.5 0.0625 C-3.79084494 -1.82522164 -3.79084494 -1.82522164 0 0 Z " fill="#CAF2F9" transform="translate(150.375,95.625)"/>
<path d="M0 0 C0 8.58 0 17.16 0 26 C-20.13 26 -40.26 26 -61 26 C-56.66420138 17.32840277 -52.8613951 15.1098546 -44.13427734 12.02587891 C-38.83608857 10.29173112 -33.45873809 8.89278272 -28.0625 7.5 C-20.41519291 5.51920727 -12.91011608 3.38545137 -5.45874023 0.75195312 C-3 0 -3 0 0 0 Z " fill="#C8F2F9" transform="translate(442,357)"/>
<path d="M0 0 C9.39537133 1.4187388 18.57143711 3.40186613 27.79174805 5.66650391 C29.39235978 6.05634005 30.99494689 6.4381509 32.59936523 6.81201172 C52.90938656 11.54584875 52.90938656 11.54584875 59.0625 19.75 C60 22 60 22 60 24 C40.2 24 20.4 24 0 24 C0 16.08 0 8.16 0 0 Z " fill="#C9F2F9" transform="translate(71,359)"/>
<path d="M0 0 C3.90863741 1.95431871 6.98579156 4.07759409 9 8 C10.28975494 12.71975538 10.48693893 16.75685917 8.5625 21.3125 C6.04835939 25.65589464 2.73655371 27.57814523 -2 29 C-6.33406542 29.59780213 -8.31507656 29.36260653 -12.1875 27.3125 C-16.51093243 23.75767778 -19.05246431 21.17400288 -19.9375 15.5625 C-20.32885626 9.6628044 -18.32708877 6.52615208 -14.5 2.125 C-10.20929647 -1.18956847 -5.13951527 -0.83364161 0 0 Z " fill="#C9F2F9" transform="translate(136,54)"/>
<path d="M0 0 C4.44260392 2.01936542 7.17603781 4.701834 9.36328125 9.01171875 C10.59220327 12.8492728 10.26982978 16.21056061 9 20 C6.78531504 23.67024835 4.25104242 26.26220576 0.5625 28.4375 C-4.45246549 29.53834608 -7.89096575 29.45113258 -12.6875 27.5 C-16.72145848 24.90478969 -18.75914367 21.59846756 -20 17 C-20.40090913 12.16454494 -19.68487039 8.38501286 -16.625 4.5625 C-11.30412999 -0.63168262 -7.16486625 -0.81092326 0 0 Z " fill="#C9F2F9" transform="translate(386,54)"/>
<path d="M0 0 C1.91619141 -0.00773437 1.91619141 -0.00773437 3.87109375 -0.015625 C4.53351074 -0.00724609 5.19592773 0.00113281 5.87841797 0.00976562 C7.90063448 0.0311905 9.91929961 0.00995261 11.94140625 -0.015625 C13.21886719 -0.01046875 14.49632813 -0.0053125 15.8125 0 C16.98103516 0.00451172 18.14957031 0.00902344 19.35351562 0.01367188 C23.02732371 0.63655041 24.18252989 1.59172886 26.40625 4.53125 C27.40625 7.96875 27.40625 7.96875 27.40625 11.53125 C25.63983828 14.33314446 24.37575178 16.04649911 21.40625 17.53125 C17.14088193 17.80243225 12.86675806 17.76290107 8.59375 17.78125 C6.81000977 17.8121875 6.81000977 17.8121875 4.99023438 17.84375 C3.84232422 17.84890625 2.69441406 17.8540625 1.51171875 17.859375 C0.46137451 17.8687207 -0.58896973 17.87806641 -1.67114258 17.88769531 C-5.02023223 17.47923563 -6.87696034 16.49429527 -9.59375 14.53125 C-11.52238839 11.98895394 -11.60277291 10.74779982 -11.46875 7.53125 C-9.62868935 1.22247062 -6.25578276 0.0241536 0 0 Z " fill="#65CCFF" transform="translate(98.59375,404.46875)"/>
<path d="M0 0 C1.27101563 -0.01933594 2.54203125 -0.03867187 3.8515625 -0.05859375 C14.19496323 -0.0041548 14.19496323 -0.0041548 17.33984375 2.94140625 C19.52886132 6.47988876 19.66901033 8.53660357 19 12.625 C17.13291495 14.98997439 15.67938569 16.28530715 13 17.625 C8.73463193 17.89618225 4.46050806 17.85665107 0.1875 17.875 C-1.59624023 17.9059375 -1.59624023 17.9059375 -3.41601562 17.9375 C-4.56392578 17.94265625 -5.71183594 17.9478125 -6.89453125 17.953125 C-7.94487549 17.9624707 -8.99521973 17.97181641 -10.07739258 17.98144531 C-13.42826178 17.57276859 -15.29671475 16.61380451 -18 14.625 C-19.56935594 11.48628812 -19.35201103 9.08644178 -19 5.625 C-14.67728817 -1.43269776 -7.5216296 -0.11442641 0 0 Z " fill="#65CBFF" transform="translate(406,404.375)"/>
<path d="M0 0 C4.09102283 -0.1389404 8.17592757 -0.25796548 12.26806641 -0.32958984 C13.65506948 -0.35948354 15.04188818 -0.40021646 16.42822266 -0.45263672 C25.76448053 -0.79642672 32.47515696 0.03171167 40 6 C38.87548273 8.9719385 37.77706209 11.33440687 36 14 C33.23371085 14.2667616 30.69380369 14.34804189 27.9296875 14.29296875 C27.13345978 14.28872391 26.33723206 14.28447906 25.51687622 14.28010559 C22.96924271 14.26328834 20.42239511 14.22563179 17.875 14.1875 C16.14975099 14.17245705 14.42448961 14.15876796 12.69921875 14.14648438 C8.46584218 14.11337501 4.23305441 14.06157285 0 14 C0 9.38 0 4.76 0 0 Z " fill="#C9F2F9" transform="translate(51,260)"/>
<path d="M0 0 C1.39968158 0.03016695 2.79942651 0.0575308 4.19921875 0.08203125 C7.5918253 0.15222311 10.98362271 0.25982115 14.375 0.375 C14.375 4.995 14.375 9.615 14.375 14.375 C9.48225504 14.57322574 4.59185831 14.71812625 -0.30395508 14.81445312 C-1.9677807 14.85461164 -3.63132522 14.90915464 -5.29418945 14.97851562 C-19.19103838 15.54352951 -19.19103838 15.54352951 -22.85400391 12.55859375 C-24.1385469 10.50332496 -24.99513917 8.7089386 -25.625 6.375 C-17.46712639 -0.09537308 -9.97734416 -0.37726462 0 0 Z " fill="#CAF2F9" transform="translate(446.625,259.625)"/>
</svg>
