<?xml version="1.0" encoding="UTF-8"?>
<svg version="1.1" xmlns="http://www.w3.org/2000/svg" width="903" height="226">
<path d="M0 0 C297.99 0 595.98 0 903 0 C903 74.58 903 149.16 903 226 C605.01 226 307.02 226 0 226 C0 151.42 0 76.84 0 0 Z " fill="#FCFDFD" transform="translate(0,0)"/>
<path d="M0 0 C1.16747772 -0.00350464 2.33495544 -0.00700928 3.53781128 -0.01062012 C7.35770798 -0.01934977 11.17741621 -0.01362052 14.99731445 -0.00683594 C17.67145514 -0.00818483 20.34559031 -0.01012467 23.01972961 -0.01263428 C28.60676073 -0.01625646 34.1937387 -0.01151943 39.78076172 -0.00195312 C46.21901022 0.0089441 52.65713214 0.00538963 59.09537762 -0.00560594 C64.65071459 -0.01470977 70.20601368 -0.01594949 75.7613557 -0.0107286 C79.0674622 -0.00762791 82.3734969 -0.00794515 85.67960167 -0.01380157 C89.36461242 -0.01889893 93.04938213 -0.01111198 96.734375 0 C97.81460434 -0.00404846 98.89483368 -0.00809692 100.00779724 -0.01226807 C115.89014149 0.07614084 115.89014149 0.07614084 121.8605957 5.07128906 C122.51286133 5.61011719 123.16512695 6.14894531 123.8371582 6.70410156 C124.74594727 7.47367188 124.74594727 7.47367188 125.6730957 8.25878906 C127.1890332 9.34160156 127.1890332 9.34160156 128.7355957 10.44628906 C137.67253394 18.14130946 141.80027119 30.22486829 143.04029846 41.63871002 C143.18666945 45.09539352 143.2142742 48.53057864 143.19067383 51.99023438 C143.19768311 53.28319427 143.20469238 54.57615417 143.21191406 55.90829468 C143.22992155 59.40818292 143.22317722 62.90759187 143.21039772 66.40748692 C143.20015981 70.09432177 143.20969216 73.78111981 143.21594238 77.46795654 C143.22318413 83.65091206 143.21371928 89.83367534 143.19458008 96.01660156 C143.17277924 103.14117379 143.17989973 110.26528858 143.2018857 117.3898499 C143.22009332 123.53889707 143.22257312 129.68780737 143.21213102 135.83687282 C143.20593034 139.4957076 143.20496578 143.15432793 143.21827698 146.8131485 C143.2320806 150.89067801 143.21289885 154.96742954 143.19067383 159.04492188 C143.19877075 160.23997345 143.20686768 161.43502502 143.21520996 162.66629028 C143.08619179 175.48896816 138.60452377 184.1409909 129.6730957 193.25878906 C118.3185836 202.58503273 105.86044622 204.5710864 91.58911133 204.51757812 C90.42353195 204.52108276 89.25795258 204.5245874 88.05705261 204.52819824 C84.23108846 204.53695018 80.40531151 204.53118945 76.5793457 204.52441406 C73.90474216 204.52576259 71.23014415 204.52770207 68.55554199 204.5302124 C62.96075438 204.53383901 57.36601978 204.52908739 51.77124023 204.51953125 C45.3262369 204.5086492 38.88136016 204.51217571 32.43635988 204.52318406 C26.87765062 204.53229431 21.3189792 204.53352402 15.76026487 204.52830672 C12.45130222 204.52520748 9.14241123 204.52551987 5.83345032 204.5313797 C2.14124105 204.536484 -1.55072841 204.52867973 -5.24291992 204.51757812 C-6.32269608 204.52162659 -7.40247223 204.52567505 -8.51496887 204.52984619 C-19.51922065 204.46884792 -27.56391928 203.05991176 -36.3269043 196.25878906 C-36.9559668 195.80503906 -37.5850293 195.35128906 -38.2331543 194.88378906 C-47.0875668 188.04880397 -50.83896818 177.84968798 -53.3269043 167.25878906 C-53.83345535 162.85040191 -53.87578745 158.50563356 -53.84448242 154.0715332 C-53.8514917 152.82415878 -53.85850098 151.57678436 -53.86572266 150.29161072 C-53.88018169 146.91103154 -53.87697638 143.53144841 -53.86420631 140.15092778 C-53.85396677 136.58607505 -53.86350219 133.02126032 -53.86975098 129.45640564 C-53.87699687 123.47256984 -53.86752171 117.48893251 -53.84838867 111.50512695 C-53.82663565 104.6232012 -53.83367197 97.74174992 -53.85569429 90.85983568 C-53.8739482 84.9137156 -53.87635796 78.96773691 -53.86593962 73.0215978 C-53.85975782 69.4866968 -53.85871976 65.95201748 -53.87208557 62.41713142 C-53.88597264 58.46971872 -53.86663253 54.52282127 -53.84448242 50.57543945 C-53.85257935 49.43060089 -53.86067627 48.28576233 -53.86901855 47.10623169 C-53.72672176 33.30083842 -50.07502718 21.71637862 -40.70581055 11.48925781 C-29.64765109 1.01450245 -14.47231602 -0.05454569 0 0 Z " fill="#00D4D5" transform="translate(63.326904296875,13.7412109375)"/>
<path d="M0 0 C73.44372924 0 73.44372924 0 88.671875 14.4140625 C95.07463302 21.52585077 98.82341423 29.75788196 101 39 C101.25475098 39.85899902 101.25475098 39.85899902 101.51464844 40.73535156 C104.98943511 56.94869218 103.37642132 77.73169005 95.23828125 92.11328125 C87.71032753 103.39757699 75.97914169 111.69300925 62.875 115.3125 C53.81760612 116.91945698 44.87192691 117.15570003 35.6875 117.125 C34.57310547 117.12886719 33.45871094 117.13273437 32.31054688 117.13671875 C21.49406488 117.12459944 10.84183167 116.5162777 0 116 C0 77.72 0 39.44 0 0 Z " fill="#F9FDFD" transform="translate(60,59)"/>
<path d="M0 0 C36.23709239 0 36.23709239 0 48.06640625 9.984375 C56.83961972 19.1297854 59.57283981 29.89970128 59.5 42.1875 C59.49427979 43.29794678 59.48855957 44.40839355 59.48266602 45.55249023 C59.29951376 53.96454366 58.41028008 60.66847771 54 68 C53.56171875 68.75925781 53.1234375 69.51851563 52.671875 70.30078125 C46.57318279 78.82290115 34.50342683 81.83219106 25 85 C16.75 85 8.5 85 0 85 C0 56.95 0 28.9 0 0 Z " fill="#FCFDFD" transform="translate(576,72)"/>
<path d="M0 0 C36.45762712 0 36.45762712 0 48.19921875 11.07421875 C58.73468874 22.23285887 59.54499329 33.46755914 59.34765625 48.18359375 C59.07835777 55.19549512 57.56114328 60.88010932 54 67 C53.68401855 67.56283691 53.36803711 68.12567383 53.04248047 68.70556641 C49.62463558 74.18331955 45.19417089 76.57587465 39.5 79.375 C38.65824219 79.81199219 37.81648438 80.24898438 36.94921875 80.69921875 C24.35801898 87.10387627 16.26948241 85 0 85 C0 56.95 0 28.9 0 0 Z " fill="#FBFDFD" transform="translate(265,72)"/>
<path d="M0 0 C37.92307692 0 37.92307692 0 47 8 C54.59830271 16.80674736 56.49915021 26.13673494 56.3125 37.5 C56.31572266 38.48097656 56.31894531 39.46195313 56.32226562 40.47265625 C56.25190527 50.0800428 55.13028661 60.21506744 48.5 67.69140625 C34.72840542 80.41100402 18.440187 77 0 77 C0 51.59 0 26.18 0 0 Z " fill="#02D4D5" transform="translate(83,78)"/>
<path d="M0 0 C5.47687495 -0.04992943 10.95361354 -0.0859669 16.43066406 -0.10986328 C18.2887605 -0.11983921 20.14684158 -0.13342478 22.00488281 -0.15087891 C40.21683803 -0.31751144 57.20514364 0.26669994 71.74609375 12.70703125 C84.18074103 25.35718368 86.29413965 40.99550139 86.31689453 57.88720703 C86.22279187 65.55366963 85.5445644 72.08645333 82 79 C81.55269531 79.87398438 81.10539063 80.74796875 80.64453125 81.6484375 C73.42957434 94.53090747 63.28990828 102.84099684 49 107 C43.11312284 107.89346473 37.41626713 108.13447798 31.46875 108.09765625 C30.15396667 108.09553383 30.15396667 108.09553383 28.81262207 108.09336853 C26.04171179 108.08781768 23.27088543 108.07527461 20.5 108.0625 C18.60937618 108.05747864 16.71875107 108.05291685 14.828125 108.04882812 C10.21871817 108.0378644 5.60937327 108.02063425 1 108 C-0.25265147 86.47755531 -0.11921837 64.96243091 -0.06866455 43.4128418 C-0.05827664 38.50439898 -0.05383442 33.59595073 -0.04882812 28.6875 C-0.03823074 19.12498608 -0.02125449 9.56249577 0 0 Z M13 11 C13 39.05 13 67.1 13 96 C33.62741179 96.95637139 33.62741179 96.95637139 51 91 C51.9178125 90.60425781 52.835625 90.20851563 53.78125 89.80078125 C61.90362343 86.20543654 66.0440971 81.58559488 69.875 73.625 C74.29991213 61.18624049 74.33232741 45.03695018 69.3125 32.8125 C68.27307234 30.83951231 67.17886202 28.89298035 66 27 C65.62875 26.36578125 65.2575 25.7315625 64.875 25.078125 C59.46726396 17.36414859 49.42924937 13.80974979 41 11 C31.76 11 22.52 11 13 11 Z " fill="#06D4D4" transform="translate(563,61)"/>
<path d="M0 0 C57.35781991 0 57.35781991 0 68 9 C68.61230469 9.50273438 69.22460938 10.00546875 69.85546875 10.5234375 C79.8342233 19.55498136 85.29753794 32.76196311 86.12646484 46.02319336 C86.79653853 64.42887976 83.86993218 80.02871652 71.625 94.5 C63.14783351 103.27535828 53.55239658 105.49288415 42 108 C40.82824219 108.29777344 40.82824219 108.29777344 39.6328125 108.6015625 C35.47184296 109.23126412 31.32667382 109.14321535 27.125 109.125 C26.27164062 109.12886719 25.41828125 109.13273437 24.5390625 109.13671875 C16.6243703 109.1250795 8.94884515 108.52992301 1 108 C0.67 72.36 0.34 36.72 0 0 Z M13 11 C13 39.05 13 67.1 13 96 C32.99456939 96 47.44715376 95.63553465 63 84 C65.81228844 80.89091296 67.51957712 77.90343711 69 74 C69.25837646 73.36755371 69.51675293 72.73510742 69.78295898 72.08349609 C72.12200211 65.89902461 72.50574462 60.19869028 72.4375 53.625 C72.42992676 52.60784912 72.42235352 51.59069824 72.41455078 50.54272461 C72.14545624 38.31856503 68.64777328 29.85859061 60.15234375 21.09375 C46.32659568 8.1200858 32.35733475 11 13 11 Z " fill="#05D4D3" transform="translate(252,61)"/>
<path d="M0 0 C6.42117023 6.2144802 10.72379942 12.6488586 11.12025452 21.76521301 C11.11803391 22.76670883 11.11581329 23.76820465 11.11352539 24.80004883 C11.11341209 26.51125664 11.11341209 26.51125664 11.11329651 28.2570343 C11.10813522 29.47803329 11.10297394 30.69903229 11.09765625 31.95703125 C11.0962413 33.21513107 11.09482635 34.4732309 11.09336853 35.76945496 C11.08872573 39.10178529 11.07975228 42.43404632 11.06866455 45.76635742 C11.05840503 49.17170617 11.05386121 52.5770621 11.04882812 55.98242188 C11.0378083 62.65496698 11.021077 69.32747949 11 76 C9.54176788 76.0270043 8.08339325 76.04639787 6.625 76.0625 C5.81289063 76.07410156 5.00078125 76.08570313 4.1640625 76.09765625 C2 76 2 76 0 75 C-0.72693904 73.02111039 -1.39816251 71.02045442 -2 69 C-2.79664063 69.40992188 -3.59328125 69.81984375 -4.4140625 70.2421875 C-5.47367187 70.78101563 -6.53328125 71.31984375 -7.625 71.875 C-8.66914063 72.40867187 -9.71328125 72.94234375 -10.7890625 73.4921875 C-19.548326 77.60541829 -28.4346176 78.31726664 -38 77 C-44.58331333 74.59126166 -48.45804063 69.8663702 -52 64 C-54.01462248 57.95613257 -53.78826638 50.78520786 -52.0625 44.6875 C-44.98955147 35.47123373 -36.76201481 31.10348464 -25.4375 29.3125 C-24.65971191 29.18512451 -23.88192383 29.05774902 -23.08056641 28.92651367 C-16.0174797 27.85037814 -9.14346552 27.68991388 -2 28 C-3.00529497 18.16468186 -3.00529497 18.16468186 -8 10 C-14.63565256 7.27379752 -22.25976313 6.68373036 -29.22265625 8.6171875 C-32.93043929 10.45885556 -34.46590915 12.70694634 -36.25 16.25 C-37.40234375 18.359375 -37.40234375 18.359375 -39 20 C-42.75014096 20.70215405 -46.22966741 20.47541847 -50 20 C-50.87089285 14.48434531 -48.78594135 10.90535948 -45.89453125 6.40234375 C-35.40212618 -6.90245855 -13.90193903 -8.8735781 0 0 Z " fill="#06D3D3" transform="translate(399,93)"/>
<path d="M0 0 C10.79402109 11.58382751 11.5625 21.15251709 11.5625 37.75 C-16.6525 38.245 -16.6525 38.245 -45.4375 38.75 C-41.9233621 50.30554456 -41.9233621 50.30554456 -34.4375 58.75 C-25.67186817 62.71934272 -16.88780985 60.93664655 -8.1015625 58.015625 C-5.23118877 56.65198704 -3.60904989 55.03204911 -1.4375 52.75 C2.17912406 52.87055414 5.40313716 55.09851488 8.5625 56.75 C7.15724558 61.22126407 5.01178976 63.6215744 1.5625 66.75 C0.840625 67.45125 0.11875 68.1525 -0.625 68.875 C-9.23642766 74.61595177 -19.4477731 74.64429905 -29.4375 73.75 C-39.45016294 71.51014997 -47.35384 64.77294967 -53.4375 56.75 C-59.48034843 44.79858866 -60.51459692 30.49727045 -57.73828125 17.46875 C-56.84050181 15.01406192 -55.82771926 12.95875957 -54.4375 10.75 C-54.01339844 10.05132812 -53.58929687 9.35265625 -53.15234375 8.6328125 C-48.41511727 1.63913552 -41.00443846 -5.08359385 -32.56640625 -6.8515625 C-20.89861821 -8.33734824 -9.73360141 -7.27485314 0 0 Z " fill="#05D3D3" transform="translate(868.4375,96.25)"/>
<path d="M0 0 C1.72774308 -0.10892951 3.45750948 -0.18601092 5.1875 -0.25 C6.15042969 -0.29640625 7.11335938 -0.3428125 8.10546875 -0.390625 C12.05766215 0.14273443 13.28259764 1.03989503 16 4 C17.93769238 7.5369431 19.4704845 11.20906498 21 14.9375 C21.43932861 15.9793042 21.87865723 17.0211084 22.33129883 18.09448242 C24.91858065 24.26519045 27.43954724 30.45918807 29.7734375 36.73046875 C30.77188389 39.39193252 31.80105377 42.03472839 32.8515625 44.67578125 C33.33749878 45.90300903 33.33749878 45.90300903 33.83325195 47.1550293 C34.47400637 48.77121291 35.11823944 50.38602278 35.76635742 51.99926758 C36.05615479 52.7342749 36.34595215 53.46928223 36.64453125 54.2265625 C37.03668823 55.21003662 37.03668823 55.21003662 37.43676758 56.21337891 C38 58 38 58 38 61 C40.5203026 59.7398487 40.66833438 58.8720677 41.734375 56.30859375 C42.21994873 55.15085449 42.21994873 55.15085449 42.71533203 53.96972656 C43.05677246 53.1340918 43.39821289 52.29845703 43.75 51.4375 C44.28343018 50.15117676 44.28343018 50.15117676 44.82763672 48.83886719 C47.54870366 42.22759174 50.08939758 35.55860952 52.5625 28.8515625 C54.90767172 22.51508891 57.46884448 16.26389892 60 10 C60.79251005 8.02117089 61.58429349 6.04205046 62.375 4.0625 C62.91125 2.721875 63.4475 1.38125 64 0 C68.29 0 72.58 0 77 0 C74.74209799 9.78424205 71.56430335 19.00420023 67.28515625 28.0859375 C65.39046955 32.38209641 63.90313872 36.80210208 62.40625 41.25 C61.36384708 44.17386199 60.11865712 46.95978788 58.80859375 49.7734375 C56.51768323 54.73863194 54.45473904 59.76969078 52.44140625 64.8515625 C52.1269455 65.64205994 51.81248474 66.43255737 51.48849487 67.24700928 C50.18163228 70.53464284 48.87658227 73.82286043 47.58666992 77.1171875 C38.54981978 100.15559109 38.54981978 100.15559109 30.875 105.5 C29.91207031 106.19609375 29.91207031 106.19609375 28.9296875 106.90625 C23.65913759 109.89360623 17.88268663 109.07003198 12 109 C12 105.37 12 101.74 12 98 C12.90363281 97.81824219 13.80726563 97.63648438 14.73828125 97.44921875 C15.91777344 97.19785156 17.09726562 96.94648438 18.3125 96.6875 C19.48425781 96.44386719 20.65601563 96.20023437 21.86328125 95.94921875 C26.38936794 94.57955615 27.44684538 92.96802059 29.75 88.9375 C32.17648123 82.85938685 30.66635466 76.20014202 28.328125 70.2890625 C27.64948214 68.72818392 26.9566521 67.17339945 26.25 65.625 C25.56726478 64.07571622 24.88498034 62.52623372 24.203125 60.9765625 C23.84524902 60.1729126 23.48737305 59.3692627 23.11865234 58.54125977 C18.77561514 48.67511524 14.81360446 38.64142643 10.80615234 28.63549805 C9.87192589 26.30483083 8.93402172 23.97566402 7.99609375 21.64648438 C5.12347033 14.48952706 2.30617764 7.36461837 0 0 Z " fill="#05D3D3" transform="translate(478,90)"/>
<path d="M0 0 C1.72694675 -0.13609913 3.45704722 -0.23249228 5.1875 -0.3125 C6.15042969 -0.37050781 7.11335937 -0.42851563 8.10546875 -0.48828125 C12.11090741 0.18740004 13.34988225 1.97522027 16 5 C17.52392578 7.84545898 17.52392578 7.84545898 18.8203125 11.05859375 C19.06443878 11.65562607 19.30856506 12.25265839 19.56008911 12.86778259 C20.38779696 14.90637251 21.1944842 16.95254613 22 19 C22.62706049 20.57056238 23.25434837 22.14103398 23.88183594 23.71142578 C25.5655035 27.94655179 27.21946228 32.1926034 28.86132812 36.4440918 C29.88672582 39.09278887 30.92383232 41.73672807 31.9609375 44.38085938 C32.61791069 46.0778452 33.27418696 47.77510103 33.9296875 49.47265625 C34.23897186 50.25600845 34.54825623 51.03936066 34.86691284 51.84645081 C36.33663109 55.69275884 37.40905863 58.80688882 37 63 C37.66 63 38.32 63 39 63 C39.061875 61.95070312 39.12375 60.90140625 39.1875 59.8203125 C39.98879155 53.47953664 42.60722242 47.75470564 45 41.875 C45.49679615 40.63691899 45.99288168 39.3985526 46.48828125 38.15991211 C47.49413826 35.6505848 48.5060289 33.1438257 49.5234375 30.63916016 C50.90009545 27.24622639 52.26422538 23.84854645 53.625 20.44921875 C54.4157467 18.48660826 55.20736151 16.52434722 56 14.5625 C56.3609375 13.66450684 56.721875 12.76651367 57.09375 11.84130859 C60.94414846 2.41403093 60.94414846 2.41403093 63 0 C66.20412636 -0.53616572 69.0629279 -0.31919742 72.2980957 -0.14526367 C73.63553833 -0.07335815 73.63553833 -0.07335815 75 0 C72.40875797 8.99004219 69.2781553 17.57874955 65.625 26.1875 C64.5629483 28.70873088 63.5042093 31.23134904 62.4453125 33.75390625 C62.03197662 34.73583954 62.03197662 34.73583954 61.61029053 35.73760986 C59.43575067 40.91794332 57.33167382 46.12471478 55.2421875 51.33984375 C54.30214781 53.67250063 53.36106993 56.0047358 52.4196167 58.33682251 C51.8091824 59.85569665 51.20273843 61.37618093 50.60040283 62.89828491 C49.75480382 65.03306286 48.89463555 67.16142813 48.03125 69.2890625 C47.54205078 70.51318848 47.05285156 71.73731445 46.54882812 72.99853516 C44.98728766 76.02463518 43.93750499 77.35140774 41 79 C38.640625 79.29296875 38.640625 79.29296875 36.25 79.1875 C35.12416504 79.13783081 35.12416504 79.13783081 33.97558594 79.0871582 C33.32364258 79.058396 32.67169922 79.02963379 32 79 C27.09429914 69.8413379 23.28315595 60.23592735 19.375 50.625 C18.66739268 48.89165234 17.95970968 47.15833556 17.25195312 45.42504883 C12.94776108 34.86723825 8.68845294 24.29176683 4.5 13.6875 C4.03770996 12.52105957 3.57541992 11.35461914 3.09912109 10.15283203 C2.68484863 9.09563965 2.27057617 8.03844727 1.84375 6.94921875 C1.48474609 6.03487061 1.12574219 5.12052246 0.75585938 4.1784668 C0 2 0 2 0 0 Z " fill="#06D3D3" transform="translate(736,90)"/>
<path d="M0 0 C3.63 0 7.26 0 11 0 C11.99 2.64 12.98 5.28 14 8 C14.44730469 7.59007813 14.89460937 7.18015625 15.35546875 6.7578125 C15.96003906 6.21898438 16.56460938 5.68015625 17.1875 5.125 C17.77917969 4.59132813 18.37085938 4.05765625 18.98046875 3.5078125 C24.19857695 -0.38810581 29.05328872 -0.25344475 35.3125 -0.125 C36.14845703 -0.11597656 36.98441406 -0.10695313 37.84570312 -0.09765625 C39.89725969 -0.07420989 41.94866777 -0.03834266 44 0 C44 3.96 44 7.92 44 12 C42.865625 12.15855469 41.73125 12.31710938 40.5625 12.48046875 C31.37613886 13.86422676 23.82273633 15.01650579 17.125 21.9375 C13.71108179 28.19635005 13.59082006 34.34081411 13.3671875 41.3046875 C13.32562531 42.38380402 13.28406311 43.46292053 13.24124146 44.57473755 C13.11090482 48.00790956 12.99278741 51.4413768 12.875 54.875 C12.78856715 57.20836336 12.70133658 59.54169731 12.61328125 61.875 C12.39960987 67.58303395 12.19689319 73.29136367 12 79 C8.04 79 4.08 79 0 79 C0 52.93 0 26.86 0 0 Z " fill="#04D3D3" transform="translate(662,90)"/>
<path d="M0 0 C1.4370809 -0.05422947 2.87475462 -0.09289723 4.3125 -0.125 C5.11300781 -0.14820313 5.91351563 -0.17140625 6.73828125 -0.1953125 C9 0 9 0 12 2 C12.92857784 4.78573353 13.1237216 6.43479114 13.12025452 9.30900574 C13.12162918 10.18820175 13.12300385 11.06739777 13.12442017 11.97323608 C13.12082489 12.93492706 13.11722961 13.89661804 13.11352539 14.88745117 C13.11367142 15.90226059 13.11381744 16.91707001 13.1139679 17.96263123 C13.11327026 21.32276535 13.10548478 24.68284429 13.09765625 28.04296875 C13.09579154 30.37038645 13.09436789 32.69780454 13.09336853 35.02522278 C13.08954751 41.15564047 13.07972074 47.28603453 13.06866455 53.41644287 C13.05844152 59.67020345 13.05386899 65.92396785 13.04882812 72.17773438 C13.03809813 84.45183331 13.02102666 96.72591469 13 109 C11.3973218 109.10824843 9.79254252 109.18570645 8.1875 109.25 C7.29417969 109.29640625 6.40085937 109.3428125 5.48046875 109.390625 C3 109 3 109 1.19832897 107.26357651 C-0.12306775 104.76753189 -0.37082701 103.33712736 -0.36076355 100.53277588 C-0.36488754 99.64379105 -0.36901154 98.75480621 -0.3732605 97.83888245 C-0.36247467 96.871436 -0.35168884 95.90398956 -0.34057617 94.90722656 C-0.34101425 93.88251755 -0.34145233 92.85780853 -0.34190369 91.80204773 C-0.33981351 88.41471307 -0.3164711 85.02787321 -0.29296875 81.640625 C-0.28737362 79.29221873 -0.28310313 76.94380897 -0.28010559 74.59539795 C-0.26865032 68.41394384 -0.239177 62.23270114 -0.20599365 56.05133057 C-0.17530763 49.74388489 -0.16160338 43.43640506 -0.14648438 37.12890625 C-0.11430818 24.75251127 -0.06310337 12.37627322 0 0 Z " fill="#00D3D3" transform="translate(456,60)"/>
<path d="M0 0 C3.96 0 7.92 0 12 0 C12 26.07 12 52.14 12 79 C8.04 79 4.08 79 0 79 C0 52.93 0 26.86 0 0 Z " fill="#02D3D3" transform="translate(427,90)"/>
<path d="M0 0 C3.96 0 7.92 0 12 0 C12 26.07 12 52.14 12 79 C8.7 79 5.4 79 2 79 C-0.39945152 75.40082272 -0.26971759 72.83570475 -0.22705078 68.68286133 C-0.22734283 67.94115189 -0.22763489 67.19944244 -0.22793579 66.43525696 C-0.22654264 63.98406265 -0.21098227 61.53317245 -0.1953125 59.08203125 C-0.19158232 57.38238186 -0.18873537 55.68273031 -0.18673706 53.983078 C-0.17910102 49.50975609 -0.15945279 45.03656406 -0.1373291 40.56329346 C-0.11687004 35.99859372 -0.10773522 31.433873 -0.09765625 26.86914062 C-0.07620687 17.91270335 -0.04207127 8.95636248 0 0 Z " fill="#02D2D2" transform="translate(715,90)"/>
<path d="M0 0 C5.87529418 3.25573627 8.7563121 8.2001242 11.6875 14.0625 C11.6875 17.0325 11.6875 20.0025 11.6875 23.0625 C-3.1625 23.0625 -18.0125 23.0625 -33.3125 23.0625 C-33.3125 15.07479058 -32.673664 11.41296688 -28.3125 5.0625 C-20.55111516 -2.52208792 -9.93215257 -4.35094297 0 0 Z " fill="#F5FCFC" transform="translate(855.3125,100.9375)"/>
<path d="M0 0 C0.97453125 0.00902344 1.9490625 0.01804688 2.953125 0.02734375 C5.34400728 0.05078377 7.73437261 0.08359558 10.125 0.125 C10.20632187 2.68814499 10.26564175 5.24868418 10.3125 7.8125 C10.33763672 8.53373047 10.36277344 9.25496094 10.38867188 9.99804688 C10.45196137 14.61817999 9.96050954 17.45355015 7.125 21.125 C1.16248278 26.94885403 -4.53309431 29.2362714 -12.875 29.625 C-18.52216071 29.48901007 -22.77593754 28.11175938 -26.875 24.125 C-28.32404291 19.77787128 -28.38461794 15.66787993 -27.875 11.125 C-24.91723037 5.68270387 -19.80830002 3.39819617 -14.328125 1.01953125 C-9.52005968 -0.22599698 -4.94247434 -0.08706256 0 0 Z " fill="#F7FCFD" transform="translate(386.875,130.875)"/>
<path d="M0 0 C2.12890625 0.4140625 2.12890625 0.4140625 4.69140625 1.9765625 C6.70105349 5.38422522 6.67568764 7.51824513 6.12890625 11.4140625 C4.75390625 14.3515625 4.75390625 14.3515625 2.12890625 16.4140625 C-1.33608615 17.11159779 -4.41017421 17.14765912 -7.87109375 16.4140625 C-10.50078273 13.78437352 -10.77835169 12.05000803 -11.30859375 8.4140625 C-10.27985331 1.35984236 -6.61706269 -0.41424775 0 0 Z " fill="#08D3D2" transform="translate(434.87109375,58.5859375)"/>
<path d="M0 0 C0.76441406 -0.00773437 1.52882813 -0.01546875 2.31640625 -0.0234375 C4.99240433 0.47923617 5.86416303 1.16741157 7.4375 3.375 C8.29313131 7.56065586 8.10009019 11.2430751 5.9375 14.9375 C2.49042052 16.9195707 -0.67281176 17.21827226 -4.5625 16.375 C-6.78125 15.16015625 -6.78125 15.16015625 -8.5625 13.375 C-9.09375 11 -9.09375 11 -9.0625 8.375 C-9.0728125 7.50875 -9.083125 6.6425 -9.09375 5.75 C-8.5625 3.375 -8.5625 3.375 -6.81640625 1.5859375 C-4.31895593 0.2441531 -2.81647227 -0.02859363 0 0 Z " fill="#06D2D1" transform="translate(720.5625,58.625)"/>
<path d="M0 0 C0.33 0 0.66 0 1 0 C1 25.08 1 50.16 1 76 C3.97 76 6.94 76 10 76 C10 61.48 10 46.96 10 32 C10.66 31.67 11.32 31.34 12 31 C12 46.51 12 62.02 12 78 C8.04 78 4.08 78 0 78 C0 52.26 0 26.52 0 0 Z " fill="#0ECBCB" transform="translate(662,91)"/>
</svg>
